<svg xmlns="http://www.w3.org/2000/svg" viewBox="0 0 200 200" width="200" height="200"><defs><filter id="s8_sh" x="-30%" y="-30%" width="160%" height="160%"><feDropShadow dx="0" dy="5" stdDeviation="4" flood-color="#000" flood-opacity="0.55"/></filter><linearGradient id="s8_g" x1="0" y1="0" x2="0" y2="1"><stop offset="0" stop-color="#fff6c2"/><stop offset="0.3333333333333333" stop-color="#f5c842"/><stop offset="0.6666666666666666" stop-color="#b8860b"/><stop offset="1" stop-color="#6a4400"/></linearGradient><linearGradient id="s8_b" x1="0" y1="0" x2="0" y2="1"><stop offset="0" stop-color="#3f8cff"/><stop offset="1" stop-color="#0a2a66"/></linearGradient><linearGradient id="s8_sk" x1="0" y1="0" x2="0" y2="1"><stop offset="0" stop-color="#e8b070"/><stop offset="1" stop-color="#a8682a"/></linearGradient></defs><g filter="url(#s8_sh)"><path d="M100 14C58 14 36 40 34 72L22 186h156L166 72C164 40 142 14 100 14z" fill="url(#s8_g)" stroke="#4a2e00" stroke-width="4"/><path d="M34 82L21 186" stroke="url(#s8_b)" stroke-width="9"/><path d="M53 78L43 186" stroke="url(#s8_b)" stroke-width="9"/><path d="M72 74L65 186" stroke="url(#s8_b)" stroke-width="9"/><path d="M91 70L87 186" stroke="url(#s8_b)" stroke-width="9"/><path d="M110 74L109 186" stroke="url(#s8_b)" stroke-width="9"/><path d="M129 78L131 186" stroke="url(#s8_b)" stroke-width="9"/><path d="M148 82L153 186" stroke="url(#s8_b)" stroke-width="9"/><path d="M66 64h68v52c0 26-14 44-34 44s-34-18-34-44z" fill="url(#s8_sk)" stroke="#4a2e00" stroke-width="3"/><path d="M66 64c4-12 18-20 34-20s30 8 34 20" fill="url(#s8_b)" stroke="#4a2e00" stroke-width="3"/><path d="M74 92q10-6 20 0M106 92q10-6 20 0" stroke="#1a0d00" stroke-width="4" fill="none" stroke-linecap="round"/><path d="M76 100h16M108 100h16" stroke="#1a0d00" stroke-width="5" stroke-linecap="round"/><path d="M100 104v18M92 136q8 4 16 0" stroke="#7a4a1a" stroke-width="3" fill="none" stroke-linecap="round"/><path d="M92 158h16l-3 26h-10z" fill="url(#s8_b)" stroke="#4a2e00" stroke-width="2"/><path d="M100 30c6 0 10 6 10 12s-4 10-10 12c-6-2-10-6-10-12s4-12 10-12z" fill="url(#s8_b)" stroke="#4a2e00" stroke-width="2"/></g><path d="M140 25Q141.35 32.65 149 34Q141.35 35.35 140 43Q138.65 35.35 131 34Q138.65 32.65 140 25Z" fill="#fff" opacity="0.95"/></svg>
