<svg xmlns="http://www.w3.org/2000/svg" viewBox="0 0 400 400" width="400" height="400"><g transform="scale(0.5555555555555556) translate(-280 0)"><defs><radialGradient id="bgv" cx="0.5" cy="0.5" r="0.75" fx="0.5" fy="0.5"><stop offset="0.55" stop-color="#0000"/><stop offset="1" stop-color="#000c"/></radialGradient><linearGradient id="bgsky" x1="0" y1="0" x2="0" y2="1"><stop offset="0" stop-color="#2a0f4a"/><stop offset="0.5" stop-color="#c0502a"/><stop offset="1" stop-color="#ffb050"/></linearGradient><radialGradient id="bgsun" cx="0.5" cy="0.5" r="0.5" fx="0.5" fy="0.5"><stop offset="0" stop-color="#fff8d0"/><stop offset="0.5" stop-color="#ffd84a"/><stop offset="1" stop-color="#ff900000"/></radialGradient><linearGradient id="bgdune" x1="0" y1="0" x2="0" y2="1"><stop offset="0" stop-color="#d89040"/><stop offset="1" stop-color="#7a4410"/></linearGradient><linearGradient id="bgpyr" x1="0" y1="0" x2="1" y2="0"><stop offset="0" stop-color="#a0602a"/><stop offset="1" stop-color="#3a1a06"/></linearGradient></defs><rect width="1280" height="720" fill="url(#bgsky)"/><circle cx="640" cy="374.40000000000003" r="260" fill="url(#bgsun)" opacity="0.9"/><polygon points="120,560 300,250 480,560" fill="url(#bgpyr)"/><polygon points="820,560 1020,210 1220,560" fill="url(#bgpyr)"/><polygon points="980,560 1100,360 1220,560" fill="#2a1004" opacity=".6"/><path d="M0 560Q320 500 640 560T1280 540V720H0Z" fill="url(#bgdune)"/><path d="M0 620Q400 580 760 630T1280 610V720H0Z" fill="#6a3a0a" opacity=".7"/><rect x="0" y="0" width="70" height="720" fill="#3a2006" opacity=".85"/><rect x="6" y="0" width="58" height="720" fill="none" stroke="#e0a82e" stroke-width="3" opacity=".7"/><circle cx="35" cy="40" r="10" fill="none" stroke="#e0a82e" stroke-width="3" opacity=".6"/><path d="M23 120l12-22 12 22z" fill="none" stroke="#e0a82e" stroke-width="3" opacity=".6"/><path d="M35 170v24M25 178h20" stroke="#e0a82e" stroke-width="3" opacity=".6"/><circle cx="35" cy="250" r="10" fill="none" stroke="#e0a82e" stroke-width="3" opacity=".6"/><path d="M23 330l12-22 12 22z" fill="none" stroke="#e0a82e" stroke-width="3" opacity=".6"/><path d="M35 380v24M25 388h20" stroke="#e0a82e" stroke-width="3" opacity=".6"/><circle cx="35" cy="460" r="10" fill="none" stroke="#e0a82e" stroke-width="3" opacity=".6"/><path d="M23 540l12-22 12 22z" fill="none" stroke="#e0a82e" stroke-width="3" opacity=".6"/><path d="M35 590v24M25 598h20" stroke="#e0a82e" stroke-width="3" opacity=".6"/><circle cx="35" cy="670" r="10" fill="none" stroke="#e0a82e" stroke-width="3" opacity=".6"/><rect x="1210" y="0" width="70" height="720" fill="#3a2006" opacity=".85"/><rect x="1216" y="0" width="58" height="720" fill="none" stroke="#e0a82e" stroke-width="3" opacity=".7"/><circle cx="1245" cy="40" r="10" fill="none" stroke="#e0a82e" stroke-width="3" opacity=".6"/><path d="M1233 120l12-22 12 22z" fill="none" stroke="#e0a82e" stroke-width="3" opacity=".6"/><path d="M1245 170v24M1235 178h20" stroke="#e0a82e" stroke-width="3" opacity=".6"/><circle cx="1245" cy="250" r="10" fill="none" stroke="#e0a82e" stroke-width="3" opacity=".6"/><path d="M1233 330l12-22 12 22z" fill="none" stroke="#e0a82e" stroke-width="3" opacity=".6"/><path d="M1245 380v24M1235 388h20" stroke="#e0a82e" stroke-width="3" opacity=".6"/><circle cx="1245" cy="460" r="10" fill="none" stroke="#e0a82e" stroke-width="3" opacity=".6"/><path d="M1233 540l12-22 12 22z" fill="none" stroke="#e0a82e" stroke-width="3" opacity=".6"/><path d="M1245 590v24M1235 598h20" stroke="#e0a82e" stroke-width="3" opacity=".6"/><circle cx="1245" cy="670" r="10" fill="none" stroke="#e0a82e" stroke-width="3" opacity=".6"/><rect width="1280" height="720" fill="url(#bgv)"/></g><g transform="translate(22 120) rotate(-10 75 75) scale(0.75)"><defs><filter id="p0s7_sh" x="-30%" y="-30%" width="160%" height="160%"><feDropShadow dx="0" dy="5" stdDeviation="4" flood-color="#000" flood-opacity="0.55"/></filter><linearGradient id="p0s7_g" x1="0" y1="0" x2="0" y2="1"><stop offset="0" stop-color="#fff6c2"/><stop offset="0.3333333333333333" stop-color="#f5c842"/><stop offset="0.6666666666666666" stop-color="#b8860b"/><stop offset="1" stop-color="#6a4400"/></linearGradient><radialGradient id="p0s7_i" cx="0.4" cy="0.4" r="0.6" fx="0.4" fy="0.4"><stop offset="0" stop-color="#7fe0ff"/><stop offset="0.5" stop-color="#0a74c4"/><stop offset="1" stop-color="#021a3a"/></radialGradient><linearGradient id="p0s7_bg" x1="0" y1="0" x2="0" y2="1"><stop offset="0" stop-color="#1d6ee0"/><stop offset="1" stop-color="#0a2a66"/></linearGradient></defs><g filter="url(#p0s7_sh)"><circle cx="100" cy="100" r="86" fill="url(#p0s7_bg)" stroke="url(#p0s7_g)" stroke-width="8"/><path d="M24 92C60 52 140 52 176 92 140 128 60 128 24 92z" fill="#fff8e6" stroke="#1a0d00" stroke-width="7" stroke-linejoin="round"/><circle cx="100" cy="92" r="24" fill="url(#p0s7_i)" stroke="#1a0d00" stroke-width="4"/><circle cx="100" cy="92" r="9" fill="#000"/><circle cx="92" cy="84" r="5" fill="#fff"/><path d="M28 66C64 40 136 40 172 66" stroke="#1a0d00" stroke-width="8" fill="none" stroke-linecap="round"/><path d="M84 118l-8 44c-2 10 10 16 18 8" stroke="#1a0d00" stroke-width="8" fill="none" stroke-linecap="round"/><path d="M120 118c10 20 30 30 44 22" stroke="#1a0d00" stroke-width="7" fill="none" stroke-linecap="round"/></g></g><g transform="translate(228 120) rotate(10 75 75) scale(0.75)"><defs><filter id="p1s8_sh" x="-30%" y="-30%" width="160%" height="160%"><feDropShadow dx="0" dy="5" stdDeviation="4" flood-color="#000" flood-opacity="0.55"/></filter><linearGradient id="p1s8_g" x1="0" y1="0" x2="0" y2="1"><stop offset="0" stop-color="#fff6c2"/><stop offset="0.3333333333333333" stop-color="#f5c842"/><stop offset="0.6666666666666666" stop-color="#b8860b"/><stop offset="1" stop-color="#6a4400"/></linearGradient><linearGradient id="p1s8_b" x1="0" y1="0" x2="0" y2="1"><stop offset="0" stop-color="#3f8cff"/><stop offset="1" stop-color="#0a2a66"/></linearGradient><linearGradient id="p1s8_sk" x1="0" y1="0" x2="0" y2="1"><stop offset="0" stop-color="#e8b070"/><stop offset="1" stop-color="#a8682a"/></linearGradient></defs><g filter="url(#p1s8_sh)"><path d="M100 14C58 14 36 40 34 72L22 186h156L166 72C164 40 142 14 100 14z" fill="url(#p1s8_g)" stroke="#4a2e00" stroke-width="4"/><path d="M34 82L21 186" stroke="url(#p1s8_b)" stroke-width="9"/><path d="M53 78L43 186" stroke="url(#p1s8_b)" stroke-width="9"/><path d="M72 74L65 186" stroke="url(#p1s8_b)" stroke-width="9"/><path d="M91 70L87 186" stroke="url(#p1s8_b)" stroke-width="9"/><path d="M110 74L109 186" stroke="url(#p1s8_b)" stroke-width="9"/><path d="M129 78L131 186" stroke="url(#p1s8_b)" stroke-width="9"/><path d="M148 82L153 186" stroke="url(#p1s8_b)" stroke-width="9"/><path d="M66 64h68v52c0 26-14 44-34 44s-34-18-34-44z" fill="url(#p1s8_sk)" stroke="#4a2e00" stroke-width="3"/><path d="M66 64c4-12 18-20 34-20s30 8 34 20" fill="url(#p1s8_b)" stroke="#4a2e00" stroke-width="3"/><path d="M74 92q10-6 20 0M106 92q10-6 20 0" stroke="#1a0d00" stroke-width="4" fill="none" stroke-linecap="round"/><path d="M76 100h16M108 100h16" stroke="#1a0d00" stroke-width="5" stroke-linecap="round"/><path d="M100 104v18M92 136q8 4 16 0" stroke="#7a4a1a" stroke-width="3" fill="none" stroke-linecap="round"/><path d="M92 158h16l-3 26h-10z" fill="url(#p1s8_b)" stroke="#4a2e00" stroke-width="2"/><path d="M100 30c6 0 10 6 10 12s-4 10-10 12c-6-2-10-6-10-12s4-12 10-12z" fill="url(#p1s8_b)" stroke="#4a2e00" stroke-width="2"/></g><path d="M140 25Q141.35 32.65 149 34Q141.35 35.35 140 43Q138.65 35.35 131 34Q138.65 32.65 140 25Z" fill="#fff" opacity="0.95"/></g><g transform="translate(110 70) rotate(0 95 95) scale(0.95)"><defs><filter id="p2s10_sh" x="-30%" y="-30%" width="160%" height="160%"><feDropShadow dx="0" dy="5" stdDeviation="4" flood-color="#000" flood-opacity="0.55"/></filter><linearGradient id="p2s10_l" x1="0" y1="0" x2="1" y2="1"><stop offset="0" stop-color="#ffe9a0"/><stop offset="1" stop-color="#e0a82e"/></linearGradient><linearGradient id="p2s10_r" x1="0" y1="0" x2="1" y2="1"><stop offset="0" stop-color="#c0802a"/><stop offset="1" stop-color="#6a4400"/></linearGradient><radialGradient id="p2s10_sun" cx="0.5" cy="0.5" r="0.5" fx="0.5" fy="0.5"><stop offset="0" stop-color="#fff"/><stop offset="0.5" stop-color="#ffd84a"/><stop offset="1" stop-color="#ff900000"/></radialGradient><linearGradient id="p2s10_rb" x1="0" y1="0" x2="0" y2="1"><stop offset="0" stop-color="#c0142c"/><stop offset="1" stop-color="#5c0010"/></linearGradient></defs><circle cx="100" cy="40" r="40" fill="url(#p2s10_sun)"/><g filter="url(#p2s10_sh)"><polygon points="100,26 18,150 100,150" fill="url(#p2s10_l)" stroke="#4a2e00" stroke-width="4" stroke-linejoin="round"/><polygon points="100,26 182,150 100,150" fill="url(#p2s10_r)" stroke="#4a2e00" stroke-width="4" stroke-linejoin="round"/><path d="M77.56 60H122.44" stroke="#4a2e00" stroke-opacity=".35" stroke-width="2"/><path d="M60.4 86H139.6" stroke="#4a2e00" stroke-opacity=".35" stroke-width="2"/><path d="M43.239999999999995 112H156.76" stroke="#4a2e00" stroke-opacity=".35" stroke-width="2"/><polygon points="100,26 88,44 112,44" fill="#fff6c2"/></g><g filter="url(#p2s10_sh)"><path d="M17.560000000000002 170L29.560000000000002 148L170.44 148L182.44 170L170.44 192L29.560000000000002 192Z" fill="url(#p2s10_rb)" stroke="#fff3" stroke-width="2"/><text x="100" y="181" font-family="Georgia,'Times New Roman',serif" font-weight="bold" font-size="22" text-anchor="middle" fill="#fff" stroke="#0007" stroke-width="1.5" paint-order="stroke" letter-spacing="2">SCATTER</text></g></g><rect y="300" width="400" height="100" fill="#000" opacity=".35"/><g transform="translate(0 290) scale(0.625)"><defs><linearGradient id="lgf" x1="0" y1="0" x2="0" y2="1"><stop offset="0" stop-color="#fffbe0"/><stop offset="0.3333333333333333" stop-color="#ffd84a"/><stop offset="0.6666666666666666" stop-color="#c08000"/><stop offset="1" stop-color="#ffd84a"/></linearGradient><filter id="lglgsh" x="-30%" y="-30%" width="160%" height="160%"><feDropShadow dx="0" dy="6" stdDeviation="4" flood-color="#000" flood-opacity="0.7"/></filter><linearGradient id="lglgg" x1="0" y1="0" x2="0" y2="1"><stop offset="0" stop-color="#fff6c2"/><stop offset="0.3333333333333333" stop-color="#f5c842"/><stop offset="0.6666666666666666" stop-color="#b8860b"/><stop offset="1" stop-color="#7a5200"/></linearGradient><radialGradient id="lglgr" cx="0.35" cy="0.35" r="0.7" fx="0.35" fy="0.35"><stop offset="0" stop-color="#ff8a8a"/><stop offset="0.5" stop-color="#d10f2f"/><stop offset="1" stop-color="#5c0010"/></radialGradient><radialGradient id="lglge" cx="0.35" cy="0.35" r="0.7" fx="0.35" fy="0.35"><stop offset="0" stop-color="#9dffcf"/><stop offset="0.5" stop-color="#0fa060"/><stop offset="1" stop-color="#00401f"/></radialGradient><radialGradient id="lglgs" cx="0.35" cy="0.35" r="0.7" fx="0.35" fy="0.35"><stop offset="0" stop-color="#a6d4ff"/><stop offset="0.5" stop-color="#1d6ee0"/><stop offset="1" stop-color="#06275c"/></radialGradient></defs><g transform="translate(286 -4) scale(.34)"><g filter="url(#lglgsh)"><polygon points="30.0,130.0 24.0,55.0 62.0,92.0 100.0,36.0 138.0,92.0 176.0,55.0 170.0,130.0" fill="url(#lglgg)" stroke="#5a3a00" stroke-width="4" stroke-linejoin="round"/><rect x="28" y="122" width="144" height="26" rx="6" fill="url(#lglgg)" stroke="#5a3a00" stroke-width="4"/><circle cx="24" cy="52" r="9" fill="url(#lglgg)" stroke="#5a3a00" stroke-width="3"/><circle cx="100" cy="32" r="10" fill="url(#lglgg)" stroke="#5a3a00" stroke-width="3"/><circle cx="176" cy="52" r="9" fill="url(#lglgg)" stroke="#5a3a00" stroke-width="3"/><circle cx="100" cy="98" r="14" fill="url(#lglgr)" stroke="#5a3a00" stroke-width="2"/><circle cx="62" cy="108" r="9" fill="url(#lglge)" stroke="#5a3a00" stroke-width="2"/><circle cx="138" cy="108" r="9" fill="url(#lglgs)" stroke="#5a3a00" stroke-width="2"/><circle cx="55" cy="135" r="5" fill="#d10f2f" stroke="#5a3a00" stroke-width="1.5"/><circle cx="80" cy="135" r="5" fill="#0fa060" stroke="#5a3a00" stroke-width="1.5"/><circle cx="100" cy="135" r="5" fill="#fff" stroke="#5a3a00" stroke-width="1.5"/><circle cx="120" cy="135" r="5" fill="#1d6ee0" stroke="#5a3a00" stroke-width="1.5"/><circle cx="145" cy="135" r="5" fill="#d10f2f" stroke="#5a3a00" stroke-width="1.5"/><path d="M40 70L56 92" stroke="#fff" stroke-opacity=".6" stroke-width="4" stroke-linecap="round"/></g><path d="M96 83Q97.05 88.95 103 90Q97.05 91.05 96 97Q94.95 91.05 89 90Q94.95 88.95 96 83Z" fill="#fff" opacity="0.95"/></g><text x="320" y="136" font-family="Georgia,'Times New Roman',serif" font-weight="bold" font-size="67.5" text-anchor="middle" fill="url(#lgf)" stroke="#3a1a00" stroke-width="8" paint-order="stroke" filter="url(#lglgsh)" letter-spacing="2">Pharaoh's Riches</text></g><text x="388" y="22" font-family="Georgia,'Times New Roman',serif" font-size="14" font-weight="bold" text-anchor="end" fill="#ffd84a" opacity=".9">RoyalSpin</text></svg>
