<svg xmlns="http://www.w3.org/2000/svg" viewBox="0 0 400 400" width="400" height="400"><g transform="scale(0.5555555555555556) translate(-280 0)"><defs><radialGradient id="bgv" cx="0.5" cy="0.5" r="0.75" fx="0.5" fy="0.5"><stop offset="0.55" stop-color="#0000"/><stop offset="1" stop-color="#000c"/></radialGradient><radialGradient id="bga" cx="0.5" cy="0.45" r="0.85" fx="0.5" fy="0.45"><stop offset="0" stop-color="#4a1f8a"/><stop offset="0.5" stop-color="#1a0a40"/><stop offset="1" stop-color="#05020f"/></radialGradient><linearGradient id="bgc" x1="0" y1="0" x2="1" y2="0"><stop offset="0" stop-color="#7a0a2a"/><stop offset="1" stop-color="#2a0010"/></linearGradient></defs><rect width="1280" height="720" fill="url(#bga)"/><path d="M0 0L132 0L168 120L132 240L168 360L132 480L168 600L132 720L0 720Z" fill="url(#bgc)" opacity=".9"/><path d="M30 0V720" stroke="#000" stroke-opacity=".18" stroke-width="6"/><path d="M50 0V720" stroke="#000" stroke-opacity=".18" stroke-width="6"/><path d="M70 0V720" stroke="#000" stroke-opacity=".18" stroke-width="6"/><path d="M90 0V720" stroke="#000" stroke-opacity=".18" stroke-width="6"/><path d="M110 0V720" stroke="#000" stroke-opacity=".18" stroke-width="6"/><path d="M130 0V720" stroke="#000" stroke-opacity=".18" stroke-width="6"/><path d="M1280 0L1148 0L1112 120L1148 240L1112 360L1148 480L1112 600L1148 720L1280 720Z" fill="url(#bgc)" opacity=".9"/><path d="M1250 0V720" stroke="#000" stroke-opacity=".18" stroke-width="6"/><path d="M1230 0V720" stroke="#000" stroke-opacity=".18" stroke-width="6"/><path d="M1210 0V720" stroke="#000" stroke-opacity=".18" stroke-width="6"/><path d="M1190 0V720" stroke="#000" stroke-opacity=".18" stroke-width="6"/><path d="M1170 0V720" stroke="#000" stroke-opacity=".18" stroke-width="6"/><path d="M1150 0V720" stroke="#000" stroke-opacity=".18" stroke-width="6"/><path d="M883.7359698896631 618.3293201227946Q884.680709351069 623.6828437374279 890.0342329657024 624.6275831988338Q884.680709351069 625.5723226602397 883.7359698896631 630.925846274873Q882.7912304282572 625.5723226602397 877.4377068136239 624.6275831988338Q882.7912304282572 623.6828437374279 883.7359698896631 618.3293201227946Z" fill="#ffd84a" opacity="0.2907532308164549"/><path d="M191.04921060712002 401.3603391548249Q191.94035440808193 406.41015402694245 196.99016928019947 407.30129782790436Q191.94035440808193 408.1924416288663 191.04921060712002 413.24225650098384Q190.1580668061581 408.1924416288663 185.10825193404057 407.30129782790436Q190.1580668061581 406.41015402694245 191.04921060712002 401.3603391548249Z" fill="#fff" opacity="0.3692434559289771"/><path d="M1012.8366283074363 11.748816386562602Q1013.2017416064178 13.817791747458084 1015.2707169673133 14.182905046439641Q1013.2017416064178 14.548018345421198 1012.8366283074363 16.61699370631668Q1012.4715150084547 14.548018345421198 1010.4025396475593 14.182905046439641Q1012.4715150084547 13.817791747458084 1012.8366283074363 11.748816386562602Z" fill="#fff" opacity="0.7728150114163896"/><path d="M644.0471208133242 456.12160799011735Q644.8133831656197 460.4637613197916 649.155536495294 461.2300236720871Q644.8133831656197 461.9962860243826 644.0471208133242 466.33843935405685Q643.2808584610287 461.9962860243826 638.9387051313545 461.2300236720871Q643.2808584610287 460.4637613197916 644.0471208133242 456.12160799011735Z" fill="#ffd84a" opacity="0.31423894941270253"/><path d="M29.923372296545068 649.9868968753023Q30.479885363886023 653.1404709235677 33.63345941215144 653.6969839909086Q30.479885363886023 654.2534970582495 29.923372296545068 657.407071106515Q29.366859229204113 654.2534970582495 26.213285180938694 653.6969839909086Q29.366859229204113 653.1404709235677 29.923372296545068 649.9868968753023Z" fill="#fff" opacity="0.3434185568647632"/><path d="M502.8027717981513 20.871247426486804Q503.56950883061575 25.216090610452078 507.914352014581 25.98282764291654Q503.56950883061575 26.749564675381002 502.8027717981513 31.094407859346276Q502.03603476568685 26.749564675381002 497.69119158172157 25.98282764291654Q502.03603476568685 25.216090610452078 502.8027717981513 20.871247426486804Z" fill="#fff" opacity="0.23287201377830657"/><path d="M1023.8720223902465 656.2532928774631Q1024.7503489871979 661.2304769268544 1029.7275330365892 662.1088035238058Q1024.7503489871979 662.9871301207572 1023.8720223902465 667.9643141701486Q1022.993695793295 662.9871301207572 1018.0165117439037 662.1088035238058Q1022.993695793295 661.2304769268544 1023.8720223902465 656.2532928774631Z" fill="#ffd84a" opacity="0.7567449866391205"/><path d="M454.3803350388821 156.8419531414676Q455.34789022430584 162.32476585886886 460.8307029417071 163.2923210442926Q455.34789022430584 164.25987622971635 454.3803350388821 169.7426889471176Q453.41277985345835 164.25987622971635 447.9299671360571 163.2923210442926Q453.41277985345835 162.32476585886886 454.3803350388821 156.8419531414676Z" fill="#fff" opacity="0.3333354905558149"/><path d="M1215.1326375595597 181.64500270750838Q1216.0873846860484 187.05523642427775 1221.4976184028178 188.00998355076646Q1216.0873846860484 188.96473067725518 1215.1326375595597 194.37496439402454Q1214.177890433071 188.96473067725518 1208.7676567163016 188.00998355076646Q1214.177890433071 187.05523642427775 1215.1326375595597 181.64500270750838Z" fill="#fff" opacity="0.2233045432002326"/><path d="M1022.8524366606516 377.4006121069198Q1023.6937015046774 382.167779556399 1028.4608689541565 383.0090444004247Q1023.6937015046774 383.85030924445044 1022.8524366606516 388.61747669392963Q1022.0111718166258 383.85030924445044 1017.2440043671468 383.0090444004247Q1022.0111718166258 382.167779556399 1022.8524366606516 377.4006121069198Z" fill="#ffd84a" opacity="0.6921575653293706"/><path d="M196.69618028839693 509.4927860493704Q197.28221801163835 512.8136664810718 200.60309844333966 513.3997042043131Q197.28221801163835 513.9857419275545 196.69618028839693 517.3066223592558Q196.1101425651555 513.9857419275545 192.7892621334542 513.3997042043131Q196.1101425651555 512.8136664810718 196.69618028839693 509.4927860493704Z" fill="#fff" opacity="0.5573462155250332"/><path d="M1104.738620356413 522.9582645259409Q1105.7755992617695 528.8344783229609 1111.6518130587895 529.8714572283174Q1105.7755992617695 530.9084361336738 1104.738620356413 536.7846499306938Q1103.7016414510567 530.9084361336738 1097.8254276540367 529.8714572283174Q1103.7016414510567 528.8344783229609 1104.738620356413 522.9582645259409Z" fill="#fff" opacity="0.6029757346054313"/><path d="M28.102517750209678 716.215871152669Q28.58792423609451 718.9665079060164 31.33856098944187 719.4519143919013Q28.58792423609451 719.9373208777861 28.102517750209678 722.6879576311335Q27.617111264324848 719.9373208777861 24.866474510977486 719.4519143919013Q27.617111264324848 718.9665079060164 28.102517750209678 716.215871152669Z" fill="#ffd84a" opacity="0.41787590581725903"/><path d="M86.0843969193142 228.83294152546017Q87.23647411711187 235.36137897964696 93.76491157129865 236.51345617744462Q87.23647411711187 237.6655333752423 86.0843969193142 244.19397082942908Q84.93231972151654 237.6655333752423 78.40388226732975 236.51345617744462Q84.93231972151654 235.36137897964696 86.0843969193142 228.83294152546017Z" fill="#fff" opacity="0.24097584005536124"/><path d="M1026.0227957982781 110.59147127214025Q1026.7420006067882 114.66696518703081 1030.8174945216788 115.38616999554091Q1026.7420006067882 116.10537480405101 1026.0227957982781 120.18086871894157Q1025.303590989768 116.10537480405101 1021.2280970748775 115.38616999554091Q1025.303590989768 114.66696518703081 1026.0227957982781 110.59147127214025Z" fill="#fff" opacity="0.450146927917513"/><path d="M41.42986122651944 708.2198313113487Q42.49550479738554 714.2584782129233 48.53415169896013 715.3241217837893Q42.49550479738554 716.3897653546554 41.42986122651944 722.42841225623Q40.36421765565334 716.3897653546554 34.325570754078754 715.3241217837893Q40.36421765565334 714.2584782129233 41.42986122651944 708.2198313113487Z" fill="#ffd84a" opacity="0.780997732077723"/><path d="M914.9507817206445 521.6764693331686Q915.8254468349045 526.6329049806417 920.7818824823776 527.5075700949017Q915.8254468349045 528.3822352091616 914.9507817206445 533.3386708566347Q914.0761166063845 528.3822352091616 909.1196809589114 527.5075700949017Q914.0761166063845 526.6329049806417 914.9507817206445 521.6764693331686Z" fill="#fff" opacity="0.531051942176234"/><path d="M405.32108940679683 34.827770698655186Q406.13450391402887 39.4371195729702 410.74385278834393 40.25053408020226Q406.13450391402887 41.06394858743432 405.32108940679683 45.67329746174933Q404.5076748995648 41.06394858743432 399.89832602524973 40.25053408020226Q404.5076748995648 39.4371195729702 405.32108940679683 34.827770698655186Z" fill="#fff" opacity="0.6384173831328912"/><path d="M1026.0471019763938 340.5037838998286Q1026.747823206054 344.4745375345689 1030.7185768407942 345.175258764229Q1026.747823206054 345.8759799938891 1026.0471019763938 349.8467336286294Q1025.3463807467338 345.8759799938891 1021.3756271119934 345.175258764229Q1025.3463807467338 344.4745375345689 1026.0471019763938 340.5037838998286Z" fill="#ffd84a" opacity="0.3478072026258402"/><path d="M417.40388551485154 503.52546578787775Q418.41252243156777 509.24107498260315 424.12813162629317 510.2497118993194Q418.41252243156777 511.2583488160356 417.40388551485154 516.9739580107611Q416.3952485981353 511.2583488160356 410.6796394034099 510.2497118993194Q416.3952485981353 509.24107498260315 417.40388551485154 503.52546578787775Z" fill="#fff" opacity="0.44044049823697706"/><path d="M178.04092304598626 542.8830479866666Q178.77303137408853 547.0316618459127 182.92164523333463 547.763770174015Q178.77303137408853 548.4958785021173 178.04092304598626 552.6444923613634Q177.308814717884 548.4958785021173 173.1602008586379 547.763770174015Q177.308814717884 547.0316618459127 178.04092304598626 542.8830479866666Z" fill="#fff" opacity="0.4297827175164434"/><path d="M764.0238852463885 709.7425634476753Q764.6717854329588 713.4139978382401 768.3432198235237 714.0618980248104Q764.6717854329588 714.7097982113806 764.0238852463885 718.3812326019455Q763.3759850598183 714.7097982113806 759.7045506692534 714.0618980248104Q763.3759850598183 713.4139978382401 764.0238852463885 709.7425634476753Z" fill="#ffd84a" opacity="0.7056266715802499"/><path d="M570.6026404449741 197.4857366285154Q571.2352636285455 201.07060133541992 574.82012833545 201.7032245189913Q571.2352636285455 202.3358477025627 570.6026404449741 205.9207124094672Q569.9700172614027 202.3358477025627 566.3851525544982 201.7032245189913Q569.9700172614027 201.07060133541992 570.6026404449741 197.4857366285154Z" fill="#fff" opacity="0.5319004830270079"/><path d="M109.69671021187372 259.6965803156575Q110.61934074235089 264.92481998836143 115.84758041505476 265.84745051883857Q110.61934074235089 266.7700810493157 109.69671021187372 271.9983207220196Q108.77407968139656 266.7700810493157 103.54584000869268 265.84745051883857Q108.77407968139656 264.92481998836143 109.69671021187372 259.6965803156575Z" fill="#fff" opacity="0.36755193338501446"/><path d="M523.408610712186 429.64351616580365Q523.8064781079129 431.8980980749224 526.0610600170317 432.29596547064926Q523.8064781079129 432.6938328663761 523.408610712186 434.9484147754949Q523.0107433164592 432.6938328663761 520.7561614073404 432.29596547064926Q523.0107433164592 431.8980980749224 523.408610712186 429.64351616580365Z" fill="#ffd84a" opacity="0.5715508390884388"/><path d="M970.5692741373268 17.831636829144912Q971.0833000947566 20.744450587913814 973.9961138535256 21.25847654534362Q971.0833000947566 21.772502502773424 970.5692741373268 24.685316261542326Q970.055248179897 21.772502502773424 967.1424344211281 21.25847654534362Q970.055248179897 20.744450587913814 970.5692741373268 17.831636829144912Z" fill="#fff" opacity="0.6895145942359366"/><path d="M153.14386739688354 605.0059243710767Q154.27635461676525 611.4233519504065 160.69378219609501 612.5558391702882Q154.27635461676525 613.6883263901699 153.14386739688354 620.1057539694997Q152.01138017700183 613.6883263901699 145.59395259767206 612.5558391702882Q152.01138017700183 611.4233519504065 153.14386739688354 605.0059243710767Z" fill="#fff" opacity="0.3418033867532419"/><path d="M190.98612803126326 526.7924587938865Q191.60564451329938 530.3030521920911 195.116237911504 530.9225686741272Q191.60564451329938 531.5420851561634 190.98612803126326 535.052678554368Q190.36661154922714 531.5420851561634 186.85601815102254 530.9225686741272Q190.36661154922714 530.3030521920911 190.98612803126326 526.7924587938865Z" fill="#ffd84a" opacity="0.6756787492667127"/><path d="M709.845116799553 426.21023459100184Q710.6192935686272 430.5972362824224 715.0062952600478 431.37141305149663Q710.6192935686272 432.1455898205709 709.845116799553 436.5325915119914Q709.0709400304788 432.1455898205709 704.6839383390583 431.37141305149663Q709.0709400304788 430.5972362824224 709.845116799553 426.21023459100184Z" fill="#fff" opacity="0.7926407753421374"/><path d="M1095.4906300972127 216.17702241165287Q1096.0565147416726 219.38370206359187 1099.2631943936115 219.9495867080517Q1096.0565147416726 220.51547135251153 1095.4906300972127 223.72215100445052Q1094.9247454527529 220.51547135251153 1091.718065800814 219.9495867080517Q1094.9247454527529 219.38370206359187 1095.4906300972127 216.17702241165287Z" fill="#fff" opacity="0.3488162658631953"/><path d="M757.2989733119487 493.0906252573157Q757.9101004728211 496.55367916892624 761.3731543844317 497.1648063297987Q757.9101004728211 497.77593349067115 757.2989733119487 501.2389874022817Q756.6878461510762 497.77593349067115 753.2247922394656 497.1648063297987Q756.6878461510762 496.55367916892624 757.2989733119487 493.0906252573157Z" fill="#ffd84a" opacity="0.2761315944382284"/><path d="M733.2518894348777 670.8505269147926Q734.2548425763425 676.5339280497599 739.9382437113098 677.5368811912247Q734.2548425763425 678.5398343326895 733.2518894348777 684.2232354676568Q732.248936293413 678.5398343326895 726.5655351584456 677.5368811912247Q732.248936293413 676.5339280497599 733.2518894348777 670.8505269147926Z" fill="#fff" opacity="0.35563342725451424"/><path d="M706.1660677810814 207.55651447228763Q706.5133829719977 209.52463388747967 708.4815023871897 209.87194907839591Q706.5133829719977 210.21926426931216 706.1660677810814 212.1873836845042Q705.8187525901652 210.21926426931216 703.8506331749732 209.87194907839591Q705.8187525901652 209.52463388747967 706.1660677810814 207.55651447228763Z" fill="#fff" opacity="0.5509469350343076"/><path d="M778.9633507830681 107.42798624041302Q779.4744477192168 110.32420221192223 782.370663690726 110.8352991480709Q779.4744477192168 111.34639608421958 778.9633507830681 114.24261205572878Q778.4522538469195 111.34639608421958 775.5560378754102 110.8352991480709Q778.4522538469195 110.32420221192223 778.9633507830681 107.42798624041302Z" fill="#ffd84a" opacity="0.27080749475472377"/><path d="M558.0127661656708 694.4931082106132Q558.511606551578 697.3198703974205 561.3383687383853 697.8187107833277Q558.511606551578 698.3175511692349 558.0127661656708 701.1443133560422Q557.5139257797636 698.3175511692349 554.6871635929563 697.8187107833277Q557.5139257797636 697.3198703974205 558.0127661656708 694.4931082106132Z" fill="#fff" opacity="0.3402476194689494"/><path d="M729.0538937682788 586.7806595412834Q729.5290311872765 589.4731049156031 732.2214765615962 589.9482423346008Q729.5290311872765 590.4233797535984 729.0538937682788 593.1158251279181Q728.5787563492812 590.4233797535984 725.8863109749615 589.9482423346008Q728.5787563492812 589.4731049156031 729.0538937682788 586.7806595412834Z" fill="#fff" opacity="0.5564045103792143"/><path d="M619.963412862237 289.6761576437169Q620.8160479838177 294.50775666600816 625.647647006109 295.360391787589Q620.8160479838177 296.2130269091698 619.963412862237 301.04462593146104Q619.1107777406562 296.2130269091698 614.279178718365 295.360391787589Q619.1107777406562 294.50775666600816 619.963412862237 289.6761576437169Z" fill="#ffd84a" opacity="0.2923274178917775"/><path d="M313.4218242703209 264.6860987149981Q314.2702158509942 269.4936510054801 319.0777681414762 270.3420425861534Q314.2702158509942 271.1904341668267 313.4218242703209 275.99798645730874Q312.5734326896476 271.1904341668267 307.76588039916555 270.3420425861534Q312.5734326896476 269.4936510054801 313.4218242703209 264.6860987149981Z" fill="#fff" opacity="0.7448660852805395"/><path d="M777.1642483558173 377.25989185484116Q777.9102751576903 381.48737706545495 782.1377603683042 382.233403867328Q777.9102751576903 382.979430669201 777.1642483558173 387.2069158798148Q776.4182215539444 382.979430669201 772.1907363433305 382.233403867328Q776.4182215539444 381.48737706545495 777.1642483558173 377.25989185484116Z" fill="#fff" opacity="0.38164175504971465"/><path d="M113.02484165227492 45.72025295320921Q113.63591347498439 49.182993281896216 117.09865380367138 49.794065104605686Q113.63591347498439 50.405136927315155 113.02484165227492 53.86787725600216Q112.41376982956544 50.405136927315155 108.95102950087845 49.794065104605686Q112.41376982956544 49.182993281896216 113.02484165227492 45.72025295320921Z" fill="#ffd84a" opacity="0.256085924577048"/><path d="M77.09572918442612 212.00848418195594Q78.0260348333754 217.28021619266852 83.297766844088 218.2105218416178Q78.0260348333754 219.1408274905671 77.09572918442612 224.41255950127967Q76.16542353547683 219.1408274905671 70.89369152476424 218.2105218416178Q76.16542353547683 217.28021619266852 77.09572918442612 212.00848418195594Z" fill="#fff" opacity="0.564696000762932"/><path d="M950.7982167515887 302.5319637884684Q951.4560816887357 306.259865098968 955.1839829992354 306.917730036115Q951.4560816887357 307.575594973262 950.7982167515887 311.30349628376166Q950.1403518144417 307.575594973262 946.4124505039421 306.917730036115Q950.1403518144417 306.259865098968 950.7982167515887 302.5319637884684Z" fill="#fff" opacity="0.7573352483635165"/><path d="M1138.175102936267 551.5401304918715Q1138.8872593353383 555.5756834199426 1142.9228122634095 556.2878398190139Q1138.8872593353383 556.9999962180852 1138.175102936267 561.0355491461563Q1137.4629465371956 556.9999962180852 1133.4273936091245 556.2878398190139Q1137.4629465371956 555.5756834199426 1138.175102936267 551.5401304918715Z" fill="#ffd84a" opacity="0.6750686735613911"/><path d="M595.6213843409172 562.0562028959916Q596.4145892015795 566.5510304397447 600.9094167453326 567.344235300407Q596.4145892015795 568.1374401610693 595.6213843409172 572.6322677048224Q594.8281794802549 568.1374401610693 590.3333519365018 567.344235300407Q594.8281794802549 566.5510304397447 595.6213843409172 562.0562028959916Z" fill="#fff" opacity="0.3960642231591644"/><path d="M109.6571672984 608.7399940674566Q110.14785093413465 611.520534669953 112.92839153663105 612.0112183056876Q110.14785093413465 612.5019019414223 109.6571672984 615.2824425439187Q109.16648366266534 612.5019019414223 106.38594306016894 612.0112183056876Q109.16648366266534 611.520534669953 109.6571672984 608.7399940674566Z" fill="#fff" opacity="0.746580895824899"/><path d="M821.5819670460951 537.0591858309314Q822.7085290018083 543.4430369133065 829.0923800841834 544.5695988690197Q822.7085290018083 545.6961608247329 821.5819670460951 552.0800119071081Q820.4554050903819 545.6961608247329 814.0715540080067 544.5695988690197Q820.4554050903819 543.4430369133065 821.5819670460951 537.0591858309314Z" fill="#ffd84a" opacity="0.5511934982158183"/><path d="M659.4697821321615 99.05592288734013Q660.5273158340968 105.04861386497376 666.5200068117305 106.10614756690912Q660.5273158340968 107.16368126884447 659.4697821321615 113.1563722464781Q658.4122484302262 107.16368126884447 652.4195574525926 106.10614756690912Q658.4122484302262 105.04861386497376 659.4697821321615 99.05592288734013Z" fill="#fff" opacity="0.5126196947997619"/><path d="M1278.3205306514358 678.3495777634434Q1278.9283569195106 681.7939266158677 1282.372705771935 682.4017528839425Q1278.9283569195106 683.0095791520174 1278.3205306514358 686.4539280044417Q1277.712704383361 683.0095791520174 1274.2683555309366 682.4017528839425Q1277.712704383361 681.7939266158677 1278.3205306514358 678.3495777634434Z" fill="#fff" opacity="0.4907281124878005"/><path d="M997.0965394723197 242.5151906474635Q997.9742932965274 247.48912898464047 1002.9482316337044 248.36688280884817Q997.9742932965274 249.24463663305588 997.0965394723197 254.21857497023285Q996.218785648112 249.24463663305588 991.244847310935 248.36688280884817Q996.218785648112 247.48912898464047 997.0965394723197 242.5151906474635Z" fill="#ffd84a" opacity="0.33901732036752374"/><path d="M136.76165235858565 530.2093496855435Q137.6480740496871 535.2324059351183 142.6711302992619 536.1188276262197Q137.6480740496871 537.0052493173212 136.76165235858565 542.0283055668959Q135.8752306674842 537.0052493173212 130.8521744179094 536.1188276262197Q135.8752306674842 535.2324059351183 136.76165235858565 530.2093496855435Z" fill="#fff" opacity="0.25957653043752216"/><path d="M1072.5360916112886 642.4587121209677Q1073.543909896439 648.1696824034859 1079.2548801789571 649.1775006886362Q1073.543909896439 650.1853189737865 1072.5360916112886 655.8962892563047Q1071.5282733261383 650.1853189737865 1065.81730304362 649.1775006886362Q1071.5282733261383 648.1696824034859 1072.5360916112886 642.4587121209677Z" fill="#fff" opacity="0.2679466830268006"/><path d="M383.7990299461401 324.28993542053735Q384.9623821276356 330.8822644490118 391.55471115611005 332.0456166305073Q384.9623821276356 333.2089688120028 383.7990299461401 339.8012978404773Q382.6356777646446 333.2089688120028 376.0433487361701 332.0456166305073Q382.6356777646446 330.8822644490118 383.7990299461401 324.28993542053735Z" fill="#ffd84a" opacity="0.573409787633838"/><path d="M1063.0454085236838 197.51105582389147Q1064.1466701111726 203.75153815299413 1070.3871524402753 204.85279974048285Q1064.1466701111726 205.95406132797157 1063.0454085236838 212.19454365707423Q1061.944146936195 205.95406132797157 1055.7036646070924 204.85279974048285Q1061.944146936195 203.75153815299413 1063.0454085236838 197.51105582389147Z" fill="#fff" opacity="0.2690011300789203"/><path d="M1070.9277699430731 560.5962958537008Q1071.4690720438202 563.6636744246014 1074.536450614721 564.2049765253486Q1071.4690720438202 564.7462786260958 1070.9277699430731 567.8136571969964Q1070.386467842326 564.7462786260958 1067.3190892714254 564.2049765253486Q1070.386467842326 563.6636744246014 1070.9277699430731 560.5962958537008Z" fill="#fff" opacity="0.3096082750797349"/><path d="M397.40395284947374 64.83559224646129Q398.4990705702445 71.04125933082892 404.70473765461213 72.13637705159968Q398.4990705702445 73.23149477237044 397.40395284947374 79.43716185673807Q396.308835128703 73.23149477237044 390.10316804433535 72.13637705159968Q396.308835128703 71.04125933082892 397.40395284947374 64.83559224646129Z" fill="#ffd84a" opacity="0.42902254315933447"/><path d="M388.0230019130027 662.6480515689104Q388.4076803769522 664.8278961979578 390.5875250059995 665.2125746619073Q388.4076803769522 665.5972531258568 388.0230019130027 667.7770977549042Q387.6383234490532 665.5972531258568 385.4584788200059 665.2125746619073Q387.6383234490532 664.8278961979578 388.0230019130027 662.6480515689104Z" fill="#fff" opacity="0.3939666535649138"/><path d="M421.4392385831468 493.4906516591931Q422.4494496682188 499.21518114126764 428.17397915029335 500.22539222633964Q422.4494496682188 501.23560331141164 421.4392385831468 506.9601327934862Q420.4290274980748 501.23560331141164 414.70449801600023 500.22539222633964Q420.4290274980748 499.21518114126764 421.4392385831468 493.4906516591931Z" fill="#fff" opacity="0.6784721934036093"/><path d="M1028.598369125834 698.2287866177305Q1029.5683647799012 703.7254286574437 1035.0650068196142 704.6954243115107Q1029.5683647799012 705.6654199655777 1028.598369125834 711.1620620052909Q1027.628373471767 705.6654199655777 1022.1317314320539 704.6954243115107Q1027.628373471767 703.7254286574437 1028.598369125834 698.2287866177305Z" fill="#ffd84a" opacity="0.677973136285295"/><path d="M1054.9386707832466 600.4851398817125Q1055.5050360954879 603.6945433177468 1058.7144395315224 604.2609086299882Q1055.5050360954879 604.8272739422296 1054.9386707832466 608.0366773782639Q1054.3723054710053 604.8272739422296 1051.1629020349708 604.2609086299882Q1054.3723054710053 603.6945433177468 1054.9386707832466 600.4851398817125Z" fill="#fff" opacity="0.3345385328256884"/><path d="M830.1330007893341 20.881916611345407Q830.8269327909937 24.814197954083046 834.7592141337313 25.50812995574263Q830.8269327909937 26.20206195740221 830.1330007893341 30.13434330013985Q829.4390687876745 26.20206195740221 825.5067874449369 25.50812995574263Q829.4390687876745 24.814197954083046 830.1330007893341 20.881916611345407Z" fill="#fff" opacity="0.47677056871053813"/><path d="M1030.2951417027928 178.21090953257948Q1031.4451019050973 184.72735067897227 1037.9615430514903 185.87731088127688Q1031.4451019050973 187.0272710835815 1030.2951417027928 193.5437122299743Q1029.1451815004882 187.0272710835815 1022.6287403540954 185.87731088127688Q1029.1451815004882 184.72735067897227 1030.2951417027928 178.21090953257948Z" fill="#ffd84a" opacity="0.5207470166690154"/><path d="M842.9041953784453 521.3483685481813Q843.2394680602378 523.2482470783389 845.1393465903953 523.5835197601314Q843.2394680602378 523.9187924419239 842.9041953784453 525.8186709720815Q842.5689226966527 523.9187924419239 840.6690441664952 523.5835197601314Q842.5689226966527 523.2482470783389 842.9041953784453 521.3483685481813Z" fill="#fff" opacity="0.6186464362951427"/><path d="M1260.066627841505 183.6201864766145Q1261.1954303981229 190.01673429744946 1267.5919782189578 191.1455368540674Q1261.1954303981229 192.27433941068531 1260.066627841505 198.67088723152028Q1258.937825284887 192.27433941068531 1252.541277464052 191.1455368540674Q1258.937825284887 190.01673429744946 1260.066627841505 183.6201864766145Z" fill="#fff" opacity="0.45637975638395156"/><path d="M799.0788997701172 195.260287933294Q800.086573438101 200.97043871853543 805.7967242233424 201.9781123865192Q800.086573438101 202.98578605450297 799.0788997701172 208.6959368397444Q798.0712261021334 202.98578605450297 792.3610753168921 201.9781123865192Q798.0712261021334 200.97043871853543 799.0788997701172 195.260287933294Z" fill="#ffd84a" opacity="0.447559538900442"/><path d="M710.7691902581315 522.1545875772412Q711.571621897278 526.7017001990711 716.1187345191079 527.5041318382175Q711.571621897278 528.306563477364 710.7691902581315 532.8536760991939Q709.9667586189851 528.306563477364 705.4196459971552 527.5041318382175Q709.9667586189851 526.7017001990711 710.7691902581315 522.1545875772412Z" fill="#fff" opacity="0.5790414972966923"/><path d="M747.6198286820387 428.8818188727664Q747.9580254934336 430.79826747067114 749.8744740913384 431.1364642820661Q747.9580254934336 431.474661093461 747.6198286820387 433.3911096913657Q747.2816318706438 431.474661093461 745.365183272739 431.1364642820661Q747.2816318706438 430.79826747067114 747.6198286820387 428.8818188727664Z" fill="#fff" opacity="0.3825439062738269"/><path d="M459.5968238819361 516.0881661885307Q460.1313674425067 519.1172463650976 463.16044761907347 519.6517899256681Q460.1313674425067 520.1863334862387 459.5968238819361 523.2154136628055Q459.06228032136545 520.1863334862387 456.0332001447987 519.6517899256681Q459.06228032136545 519.1172463650976 459.5968238819361 516.0881661885307Z" fill="#ffd84a" opacity="0.7824184789158577"/><path d="M655.7339227346088 64.09841092778223Q656.247897707017 67.01093577142893 659.1604225506637 67.52491074383717Q656.247897707017 68.0388857162454 655.7339227346088 70.95141055989211Q655.2199477622005 68.0388857162454 652.3074229185538 67.52491074383717Q655.2199477622005 67.01093577142893 655.7339227346088 64.09841092778223Z" fill="#fff" opacity="0.7182444228960614"/><path d="M1139.234675037893 486.35714072674244Q1140.2935430252398 492.3573926550405 1146.2937949535378 493.4162606423872Q1140.2935430252398 494.47512862973394 1139.234675037893 500.475380558032Q1138.1758070505464 494.47512862973394 1132.1755551222484 493.4162606423872Q1138.1758070505464 492.3573926550405 1139.234675037893 486.35714072674244Z" fill="#fff" opacity="0.46284296034168726"/><path d="M856.8258162372056 375.3096296324484Q857.1869151653135 377.3558568917269 859.2331424245921 377.7169558198349Q857.1869151653135 378.0780547479429 856.8258162372056 380.1242820072214Q856.4647173090976 378.0780547479429 854.4184900498191 377.7169558198349Q856.4647173090976 377.3558568917269 856.8258162372056 375.3096296324484Z" fill="#ffd84a" opacity="0.7931275174889039"/><rect width="1280" height="720" fill="url(#bgv)"/></g><g transform="translate(22 120) rotate(-10 75 75) scale(0.75)"><defs><filter id="p0s4_sh" x="-30%" y="-30%" width="160%" height="160%"><feDropShadow dx="0" dy="5" stdDeviation="4" flood-color="#000" flood-opacity="0.55"/></filter><linearGradient id="p0s4_l" x1="0" y1="0" x2="1" y2="1"><stop offset="0" stop-color="#ffc2c8"/><stop offset="1" stop-color="#d10f2f"/></linearGradient><linearGradient id="p0s4_d" x1="0" y1="0" x2="1" y2="1"><stop offset="0" stop-color="#d10f2f"/><stop offset="1" stop-color="#5c0010"/></linearGradient><radialGradient id="p0s4_t" cx="0.35" cy="0.3" r="0.8" fx="0.35" fy="0.3"><stop offset="0" stop-color="#fff"/><stop offset="0.35" stop-color="#ffc2c8"/><stop offset="1" stop-color="#d10f2f"/></radialGradient></defs><g filter="url(#p0s4_sh)"><polygon points="100.0,18.0 147.0,33.3 176.1,73.3 176.1,122.7 147.0,162.7 100.0,178.0 53.0,162.7 23.9,122.7 23.9,73.3 53.0,33.3" fill="#5c0010" stroke="#5c0010" stroke-width="5" stroke-linejoin="round"/><polygon points="100.0,18.0 147.0,33.3 124.5,64.3 100.0,56.4" fill="url(#p0s4_l)" opacity="0.75"/><line x1="100" y1="18" x2="100" y2="56.4" stroke="#fff" stroke-opacity=".35" stroke-width="1.2"/><polygon points="147.0,33.3 176.1,73.3 139.6,85.1 124.5,64.3" fill="url(#p0s4_d)" opacity="0.9"/><line x1="147.02282018339787" y1="33.278640450004204" x2="124.45186649536689" y2="64.34489303400218" stroke="#fff" stroke-opacity=".35" stroke-width="1.2"/><polygon points="176.1,73.3 176.1,122.7 139.6,110.9 139.6,85.1" fill="url(#p0s4_l)" opacity="0.75"/><line x1="176.0845213036123" y1="73.2786404500042" x2="139.5639510778784" y2="85.1448930340022" stroke="#fff" stroke-opacity=".35" stroke-width="1.2"/><polygon points="176.1,122.7 147.0,162.7 124.5,131.7 139.6,110.9" fill="url(#p0s4_d)" opacity="0.9"/><line x1="176.0845213036123" y1="122.7213595499958" x2="139.5639510778784" y2="110.8551069659978" stroke="#fff" stroke-opacity=".35" stroke-width="1.2"/><polygon points="147.0,162.7 100.0,178.0 100.0,139.6 124.5,131.7" fill="url(#p0s4_l)" opacity="0.75"/><line x1="147.02282018339787" y1="162.72135954999578" x2="124.45186649536689" y2="131.65510696599782" stroke="#fff" stroke-opacity=".35" stroke-width="1.2"/><polygon points="100.0,178.0 53.0,162.7 75.5,131.7 100.0,139.6" fill="url(#p0s4_d)" opacity="0.9"/><line x1="100" y1="178" x2="100" y2="139.6" stroke="#fff" stroke-opacity=".35" stroke-width="1.2"/><polygon points="53.0,162.7 23.9,122.7 60.4,110.9 75.5,131.7" fill="url(#p0s4_l)" opacity="0.75"/><line x1="52.97717981660216" y1="162.72135954999578" x2="75.54813350463311" y2="131.65510696599782" stroke="#fff" stroke-opacity=".35" stroke-width="1.2"/><polygon points="23.9,122.7 23.9,73.3 60.4,85.1 60.4,110.9" fill="url(#p0s4_d)" opacity="0.9"/><line x1="23.915478696387723" y1="122.7213595499958" x2="60.436048922121614" y2="110.85510696599782" stroke="#fff" stroke-opacity=".35" stroke-width="1.2"/><polygon points="23.9,73.3 53.0,33.3 75.5,64.3 60.4,85.1" fill="url(#p0s4_l)" opacity="0.75"/><line x1="23.915478696387723" y1="73.27864045000419" x2="60.436048922121614" y2="85.14489303400217" stroke="#fff" stroke-opacity=".35" stroke-width="1.2"/><polygon points="53.0,33.3 100.0,18.0 100.0,56.4 75.5,64.3" fill="url(#p0s4_d)" opacity="0.9"/><line x1="52.97717981660214" y1="33.27864045000422" x2="75.54813350463311" y2="64.34489303400218" stroke="#fff" stroke-opacity=".35" stroke-width="1.2"/><polygon points="100.0,56.4 124.5,64.3 139.6,85.1 139.6,110.9 124.5,131.7 100.0,139.6 75.5,131.7 60.4,110.9 60.4,85.1 75.5,64.3" fill="url(#p0s4_t)" stroke="#fff" stroke-opacity=".5" stroke-width="1.5"/><polygon points="100.0,18.0 147.0,33.3 176.1,73.3 176.1,122.7 147.0,162.7 100.0,178.0 53.0,162.7 23.9,122.7 23.9,73.3 53.0,33.3" fill="none" stroke="#fff" stroke-opacity=".45" stroke-width="2" stroke-linejoin="round"/></g><path d="M72 54.599999999999994Q73.95 65.64999999999999 85 67.6Q73.95 69.55 72 80.6Q70.05 69.55 59 67.6Q70.05 65.64999999999999 72 54.599999999999994Z" fill="#fff" opacity="0.95"/><path d="M136 115Q137.05 120.95 143 122Q137.05 123.05 136 129Q134.95 123.05 129 122Q134.95 120.95 136 115Z" fill="#fff" opacity="0.7"/></g><g transform="translate(228 120) rotate(10 75 75) scale(0.75)"><defs><filter id="p1s5_sh" x="-30%" y="-30%" width="160%" height="160%"><feDropShadow dx="0" dy="5" stdDeviation="4" flood-color="#000" flood-opacity="0.55"/></filter><linearGradient id="p1s5_a" x1="0" y1="0" x2="1" y2="1"><stop offset="0" stop-color="#ffffff"/><stop offset="0.5" stop-color="#cfefff"/><stop offset="1" stop-color="#7fc8f8"/></linearGradient><linearGradient id="p1s5_b" x1="0" y1="0" x2="1" y2="1"><stop offset="0" stop-color="#e9f8ff"/><stop offset="1" stop-color="#5aaee8"/></linearGradient><linearGradient id="p1s5_c" x1="1" y1="0" x2="0" y2="1"><stop offset="0" stop-color="#a8dcff"/><stop offset="1" stop-color="#2a7fc4"/></linearGradient></defs><g filter="url(#p1s5_sh)"><polygon points="40.0,75.0 65.0,42.0 135.0,42.0 160.0,75.0 100.0,170.0" fill="url(#p1s5_c)" stroke="#1d5f99" stroke-width="4" stroke-linejoin="round"/><polygon points="40.0,75.0 65.0,42.0 52.5,75.0" fill="url(#p1s5_b)" opacity=".9"/><polygon points="65.0,42.0 82.0,75.0 73.5,75.0" fill="url(#p1s5_a)" opacity=".9"/><polygon points="82.0,75.0 100.0,42.0 91.0,75.0" fill="url(#p1s5_b)" opacity=".9"/><polygon points="100.0,42.0 118.0,75.0 109.0,75.0" fill="url(#p1s5_a)" opacity=".9"/><polygon points="118.0,75.0 135.0,42.0 126.5,75.0" fill="url(#p1s5_b)" opacity=".9"/><polygon points="135.0,42.0 160.0,75.0 147.5,75.0" fill="url(#p1s5_a)" opacity=".9"/><polygon points="65.0,42.0 135.0,42.0 118.0,75.0 82.0,75.0" fill="url(#p1s5_a)"/><line x1="40" y1="75" x2="100" y2="170" stroke="#fff" stroke-opacity=".5" stroke-width="1.5"/><line x1="82" y1="75" x2="100" y2="170" stroke="#fff" stroke-opacity=".5" stroke-width="1.5"/><line x1="118" y1="75" x2="100" y2="170" stroke="#fff" stroke-opacity=".5" stroke-width="1.5"/><line x1="160" y1="75" x2="100" y2="170" stroke="#fff" stroke-opacity=".5" stroke-width="1.5"/><polygon points="82.0,75.0 118.0,75.0 100.0,170.0" fill="#fff" opacity=".25"/><line x1="40" y1="75" x2="160" y2="75" stroke="#fff" stroke-opacity=".7" stroke-width="2"/></g><path d="M72 39Q74.4 52.6 88 55Q74.4 57.4 72 71Q69.6 57.4 56 55Q69.6 52.6 72 39Z" fill="#fff" opacity="0.95"/><path d="M140 102Q141.2 108.8 148 110Q141.2 111.2 140 118Q138.8 111.2 132 110Q138.8 108.8 140 102Z" fill="#fff" opacity="0.8"/></g><g transform="translate(110 70) rotate(0 95 95) scale(0.95)"><defs><filter id="p2s7_sh" x="-30%" y="-30%" width="160%" height="160%"><feDropShadow dx="0" dy="5" stdDeviation="4" flood-color="#000" flood-opacity="0.55"/></filter><linearGradient id="p2s7_g" x1="0" y1="0" x2="0" y2="1"><stop offset="0" stop-color="#fff6c2"/><stop offset="0.3333333333333333" stop-color="#f5c842"/><stop offset="0.6666666666666666" stop-color="#b8860b"/><stop offset="1" stop-color="#7a5200"/></linearGradient><radialGradient id="p2s7_r" cx="0.35" cy="0.35" r="0.7" fx="0.35" fy="0.35"><stop offset="0" stop-color="#ff8a8a"/><stop offset="0.5" stop-color="#d10f2f"/><stop offset="1" stop-color="#5c0010"/></radialGradient><radialGradient id="p2s7_e" cx="0.35" cy="0.35" r="0.7" fx="0.35" fy="0.35"><stop offset="0" stop-color="#9dffcf"/><stop offset="0.5" stop-color="#0fa060"/><stop offset="1" stop-color="#00401f"/></radialGradient><radialGradient id="p2s7_s" cx="0.35" cy="0.35" r="0.7" fx="0.35" fy="0.35"><stop offset="0" stop-color="#a6d4ff"/><stop offset="0.5" stop-color="#1d6ee0"/><stop offset="1" stop-color="#06275c"/></radialGradient><linearGradient id="p2s7_rb" x1="0" y1="0" x2="0" y2="1"><stop offset="0" stop-color="#c0142c"/><stop offset="1" stop-color="#6a0010"/></linearGradient></defs><g filter="url(#p2s7_sh)"><polygon points="30.0,130.0 24.0,55.0 62.0,92.0 100.0,36.0 138.0,92.0 176.0,55.0 170.0,130.0" fill="url(#p2s7_g)" stroke="#5a3a00" stroke-width="4" stroke-linejoin="round"/><rect x="28" y="122" width="144" height="26" rx="6" fill="url(#p2s7_g)" stroke="#5a3a00" stroke-width="4"/><circle cx="24" cy="52" r="9" fill="url(#p2s7_g)" stroke="#5a3a00" stroke-width="3"/><circle cx="100" cy="32" r="10" fill="url(#p2s7_g)" stroke="#5a3a00" stroke-width="3"/><circle cx="176" cy="52" r="9" fill="url(#p2s7_g)" stroke="#5a3a00" stroke-width="3"/><circle cx="100" cy="98" r="14" fill="url(#p2s7_r)" stroke="#5a3a00" stroke-width="2"/><circle cx="62" cy="108" r="9" fill="url(#p2s7_e)" stroke="#5a3a00" stroke-width="2"/><circle cx="138" cy="108" r="9" fill="url(#p2s7_s)" stroke="#5a3a00" stroke-width="2"/><circle cx="55" cy="135" r="5" fill="#d10f2f" stroke="#5a3a00" stroke-width="1.5"/><circle cx="80" cy="135" r="5" fill="#0fa060" stroke="#5a3a00" stroke-width="1.5"/><circle cx="100" cy="135" r="5" fill="#fff" stroke="#5a3a00" stroke-width="1.5"/><circle cx="120" cy="135" r="5" fill="#1d6ee0" stroke="#5a3a00" stroke-width="1.5"/><circle cx="145" cy="135" r="5" fill="#d10f2f" stroke="#5a3a00" stroke-width="1.5"/><path d="M40 70L56 92" stroke="#fff" stroke-opacity=".6" stroke-width="4" stroke-linecap="round"/></g><path d="M96 83Q97.05 88.95 103 90Q97.05 91.05 96 97Q94.95 91.05 89 90Q94.95 88.95 96 83Z" fill="#fff" opacity="0.95"/><g filter="url(#p2s7_sh)"><path d="M29.800000000000004 154L41.800000000000004 132L158.2 132L170.2 154L158.2 176L41.800000000000004 176Z" fill="url(#p2s7_rb)" stroke="#fff3" stroke-width="2"/><text x="100" y="165" font-family="Georgia,'Times New Roman',serif" font-weight="bold" font-size="30" text-anchor="middle" fill="#fff" stroke="#0007" stroke-width="1.5" paint-order="stroke" letter-spacing="2">WILD</text></g></g><rect y="300" width="400" height="100" fill="#000" opacity=".35"/><g transform="translate(0 290) scale(0.625)"><defs><linearGradient id="lgf" x1="0" y1="0" x2="0" y2="1"><stop offset="0" stop-color="#fffbe0"/><stop offset="0.3333333333333333" stop-color="#ffd84a"/><stop offset="0.6666666666666666" stop-color="#c08000"/><stop offset="1" stop-color="#ffd84a"/></linearGradient><filter id="lglgsh" x="-30%" y="-30%" width="160%" height="160%"><feDropShadow dx="0" dy="6" stdDeviation="4" flood-color="#000" flood-opacity="0.7"/></filter><linearGradient id="lglgg" x1="0" y1="0" x2="0" y2="1"><stop offset="0" stop-color="#fff6c2"/><stop offset="0.3333333333333333" stop-color="#f5c842"/><stop offset="0.6666666666666666" stop-color="#b8860b"/><stop offset="1" stop-color="#7a5200"/></linearGradient><radialGradient id="lglgr" cx="0.35" cy="0.35" r="0.7" fx="0.35" fy="0.35"><stop offset="0" stop-color="#ff8a8a"/><stop offset="0.5" stop-color="#d10f2f"/><stop offset="1" stop-color="#5c0010"/></radialGradient><radialGradient id="lglge" cx="0.35" cy="0.35" r="0.7" fx="0.35" fy="0.35"><stop offset="0" stop-color="#9dffcf"/><stop offset="0.5" stop-color="#0fa060"/><stop offset="1" stop-color="#00401f"/></radialGradient><radialGradient id="lglgs" cx="0.35" cy="0.35" r="0.7" fx="0.35" fy="0.35"><stop offset="0" stop-color="#a6d4ff"/><stop offset="0.5" stop-color="#1d6ee0"/><stop offset="1" stop-color="#06275c"/></radialGradient></defs><g transform="translate(286 -4) scale(.34)"><g filter="url(#lglgsh)"><polygon points="30.0,130.0 24.0,55.0 62.0,92.0 100.0,36.0 138.0,92.0 176.0,55.0 170.0,130.0" fill="url(#lglgg)" stroke="#5a3a00" stroke-width="4" stroke-linejoin="round"/><rect x="28" y="122" width="144" height="26" rx="6" fill="url(#lglgg)" stroke="#5a3a00" stroke-width="4"/><circle cx="24" cy="52" r="9" fill="url(#lglgg)" stroke="#5a3a00" stroke-width="3"/><circle cx="100" cy="32" r="10" fill="url(#lglgg)" stroke="#5a3a00" stroke-width="3"/><circle cx="176" cy="52" r="9" fill="url(#lglgg)" stroke="#5a3a00" stroke-width="3"/><circle cx="100" cy="98" r="14" fill="url(#lglgr)" stroke="#5a3a00" stroke-width="2"/><circle cx="62" cy="108" r="9" fill="url(#lglge)" stroke="#5a3a00" stroke-width="2"/><circle cx="138" cy="108" r="9" fill="url(#lglgs)" stroke="#5a3a00" stroke-width="2"/><circle cx="55" cy="135" r="5" fill="#d10f2f" stroke="#5a3a00" stroke-width="1.5"/><circle cx="80" cy="135" r="5" fill="#0fa060" stroke="#5a3a00" stroke-width="1.5"/><circle cx="100" cy="135" r="5" fill="#fff" stroke="#5a3a00" stroke-width="1.5"/><circle cx="120" cy="135" r="5" fill="#1d6ee0" stroke="#5a3a00" stroke-width="1.5"/><circle cx="145" cy="135" r="5" fill="#d10f2f" stroke="#5a3a00" stroke-width="1.5"/><path d="M40 70L56 92" stroke="#fff" stroke-opacity=".6" stroke-width="4" stroke-linecap="round"/></g><path d="M96 83Q97.05 88.95 103 90Q97.05 91.05 96 97Q94.95 91.05 89 90Q94.95 88.95 96 83Z" fill="#fff" opacity="0.95"/></g><text x="320" y="136" font-family="Georgia,'Times New Roman',serif" font-weight="bold" font-size="84" text-anchor="middle" fill="url(#lgf)" stroke="#3a1a00" stroke-width="8" paint-order="stroke" filter="url(#lglgsh)" letter-spacing="2">Crown Jewels</text></g><text x="388" y="22" font-family="Georgia,'Times New Roman',serif" font-size="14" font-weight="bold" text-anchor="end" fill="#ffd84a" opacity=".9">RoyalSpin</text></svg>
