<svg xmlns="http://www.w3.org/2000/svg" viewBox="0 0 200 200" width="200" height="200"><defs><filter id="chalice_sh" x="-30%" y="-30%" width="160%" height="160%"><feDropShadow dx="0" dy="6" stdDeviation="4" flood-color="#000" flood-opacity="0.6"/></filter><linearGradient id="chalice_au" x1="0" y1="0" x2="0" y2="1"><stop offset="0" stop-color="#fffbe0"/><stop offset="0.25" stop-color="#ffe27a"/><stop offset="0.5" stop-color="#e0a82e"/><stop offset="0.75" stop-color="#a8660a"/><stop offset="1" stop-color="#ffd76a"/></linearGradient><linearGradient id="chalice_cup" x1="0" y1="0" x2="1" y2="0"><stop offset="0" stop-color="#fff6c8"/><stop offset="0.3333333333333333" stop-color="#f5c842"/><stop offset="0.6666666666666666" stop-color="#b07810"/><stop offset="1" stop-color="#6a3a00"/></linearGradient><radialGradient id="chalice_wine" cx="0.5" cy="0.3" r="0.7" fx="0.5" fy="0.3"><stop offset="0" stop-color="#ff4a6a"/><stop offset="0.5" stop-color="#a0001a"/><stop offset="1" stop-color="#40000a"/></radialGradient></defs><g filter="url(#chalice_sh)"><path d="M40 30h120c0 52-22 84-60 88-38-4-60-36-60-88z" fill="url(#chalice_cup)" stroke="#6a3a00" stroke-width="3"/><ellipse cx="100" cy="32" rx="60" ry="12" fill="url(#chalice_wine)" stroke="#6a3a00" stroke-width="3"/><path d="M92 116h16l4 34h-24z" fill="url(#chalice_au)" stroke="#6a3a00" stroke-width="3"/><ellipse cx="100" cy="124" rx="16" ry="7" fill="url(#chalice_au)" stroke="#6a3a00" stroke-width="2.5"/><path d="M54 186c4-22 24-36 46-36s42 14 46 36z" fill="url(#chalice_cup)" stroke="#6a3a00" stroke-width="3"/><path d="M50 54c14 6 86 6 100 0" stroke="#6a3a00" stroke-width="3" fill="none"/><circle cx="100" cy="76" r="13" fill="#e8183a" stroke="#ffe27a" stroke-width="4"/><circle cx="96" cy="72" r="4" fill="#fff" opacity=".8"/><circle cx="66" cy="70" r="7" fill="#18a8f0" stroke="#ffe27a" stroke-width="3"/><circle cx="134" cy="70" r="7" fill="#18a8f0" stroke="#ffe27a" stroke-width="3"/><path d="M54 40c6 30 18 50 34 62" stroke="#fff" stroke-opacity=".55" stroke-width="7" stroke-linecap="round" fill="none"/></g><path d="M150 28Q151.8 38.2 162 40Q151.8 41.8 150 52Q148.2 41.8 138 40Q148.2 38.2 150 28Z" fill="#fff" opacity="0.95"/></svg>
