<svg xmlns="http://www.w3.org/2000/svg" viewBox="0 0 200 200" width="200" height="200"><defs><filter id="gemblue_sh" x="-30%" y="-30%" width="160%" height="160%"><feDropShadow dx="0" dy="6" stdDeviation="4" flood-color="#000" flood-opacity="0.6"/></filter><linearGradient id="gemblue_au" x1="0" y1="0" x2="0" y2="1"><stop offset="0" stop-color="#fffbe0"/><stop offset="0.25" stop-color="#ffe27a"/><stop offset="0.5" stop-color="#e0a82e"/><stop offset="0.75" stop-color="#a8660a"/><stop offset="1" stop-color="#ffd76a"/></linearGradient><linearGradient id="gemblue_l" x1="0" y1="0" x2="1" y2="1"><stop offset="0" stop-color="#d2f4ff"/><stop offset="1" stop-color="#18a8f0"/></linearGradient><linearGradient id="gemblue_d" x1="0" y1="0" x2="1" y2="1"><stop offset="0" stop-color="#18a8f0"/><stop offset="1" stop-color="#063c78"/></linearGradient><radialGradient id="gemblue_t" cx="0.35" cy="0.3" r="0.85" fx="0.35" fy="0.3"><stop offset="0" stop-color="#fff"/><stop offset="0.4" stop-color="#d2f4ff"/><stop offset="1" stop-color="#18a8f0"/></radialGradient></defs><g filter="url(#gemblue_sh)"><polygon points="100.0,12.0 186.0,100.0 100.0,188.0 14.0,100.0" fill="url(#gemblue_au)" stroke="#6a3a00" stroke-width="3" stroke-linejoin="round"/><polygon points="100.0,20.8 177.4,100.0 100.0,179.2 22.6,100.0" fill="#5a2a00" opacity=".55"/><polygon points="100.0,26.1 172.2,100.0 100.0,173.9 27.8,100.0" fill="#063c78"/><polygon points="100.0,26.1 172.2,100.0 136.1,100.0 100.0,63.0" fill="url(#gemblue_l)"/><line x1="100.0" y1="26.1" x2="100.0" y2="63.0" stroke="#fff" stroke-opacity=".4" stroke-width="1.4"/><polygon points="172.2,100.0 100.0,173.9 100.0,137.0 136.1,100.0" fill="url(#gemblue_d)"/><line x1="172.2" y1="100.0" x2="136.1" y2="100.0" stroke="#fff" stroke-opacity=".4" stroke-width="1.4"/><polygon points="100.0,173.9 27.8,100.0 63.9,100.0 100.0,137.0" fill="url(#gemblue_l)"/><line x1="100.0" y1="173.9" x2="100.0" y2="137.0" stroke="#fff" stroke-opacity=".4" stroke-width="1.4"/><polygon points="27.8,100.0 100.0,26.1 100.0,63.0 63.9,100.0" fill="url(#gemblue_d)"/><line x1="27.8" y1="100.0" x2="63.9" y2="100.0" stroke="#fff" stroke-opacity=".4" stroke-width="1.4"/><polygon points="100.0,63.0 136.1,100.0 100.0,137.0 63.9,100.0" fill="url(#gemblue_t)" stroke="#fff" stroke-opacity=".55" stroke-width="1.5"/></g><path d="M78 60Q80.1 71.9 92 74Q80.1 76.1 78 88Q75.9 76.1 64 74Q75.9 71.9 78 60Z" fill="#fff" opacity="0.95"/><path d="M130 111Q131.05 116.95 137 118Q131.05 119.05 130 125Q128.95 119.05 123 118Q128.95 116.95 130 111Z" fill="#fff" opacity="0.7"/></svg>
