<svg xmlns="http://www.w3.org/2000/svg" viewBox="0 0 200 200" width="200" height="200"><defs><filter id="hourglass_sh" x="-30%" y="-30%" width="160%" height="160%"><feDropShadow dx="0" dy="6" stdDeviation="4" flood-color="#000" flood-opacity="0.6"/></filter><linearGradient id="hourglass_au" x1="0" y1="0" x2="0" y2="1"><stop offset="0" stop-color="#fffbe0"/><stop offset="0.25" stop-color="#ffe27a"/><stop offset="0.5" stop-color="#e0a82e"/><stop offset="0.75" stop-color="#a8660a"/><stop offset="1" stop-color="#ffd76a"/></linearGradient><linearGradient id="hourglass_glass" x1="0" y1="0" x2="1" y2="1"><stop offset="0" stop-color="#e8fff2cc"/><stop offset="0.5" stop-color="#7affc0aa"/><stop offset="1" stop-color="#0a8a5aaa"/></linearGradient><linearGradient id="hourglass_sand" x1="0" y1="0" x2="0" y2="1"><stop offset="0" stop-color="#fff2b0"/><stop offset="1" stop-color="#e0a82e"/></linearGradient></defs><g filter="url(#hourglass_sh)"><path d="M58 34h84c0 40-30 52-34 66 4 14 34 26 34 66H58c0-40 30-52 34-66-4-14-34-26-34-66z" fill="url(#hourglass_glass)" stroke="#e8fff2" stroke-width="2"/><path d="M74 54h52c-6 18-22 26-26 34-4-8-20-16-26-34z" fill="url(#hourglass_sand)"/><path d="M98 100h4v52h-4z" fill="#ffe27a"/><path d="M66 166c6-16 24-22 34-22s28 6 34 22z" fill="url(#hourglass_sand)"/><rect x="40" y="16" width="120" height="20" rx="6" fill="url(#hourglass_au)" stroke="#6a3a00" stroke-width="3"/><rect x="40" y="164" width="120" height="20" rx="6" fill="url(#hourglass_au)" stroke="#6a3a00" stroke-width="3"/><rect x="44" y="34" width="10" height="132" rx="4" fill="url(#hourglass_au)" stroke="#6a3a00" stroke-width="2.5"/><rect x="146" y="34" width="10" height="132" rx="4" fill="url(#hourglass_au)" stroke="#6a3a00" stroke-width="2.5"/><circle cx="100" cy="26" r="6" fill="#18a8f0" stroke="#6a3a00" stroke-width="2"/><circle cx="100" cy="174" r="6" fill="#18a8f0" stroke="#6a3a00" stroke-width="2"/><path d="M70 44c4 16 14 26 22 34" stroke="#fff" stroke-opacity=".7" stroke-width="5" stroke-linecap="round" fill="none"/></g><path d="M150 50Q151.5 58.5 160 60Q151.5 61.5 150 70Q148.5 61.5 140 60Q148.5 58.5 150 50Z" fill="#fff" opacity="0.95"/></svg>
